<svg width="28" height="28" viewBox="0 0 28 28" fill="none" xmlns="http://www.w3.org/2000/svg">
<g clip-path="url(#clip0_2263_3341)">
<path d="M26.3285 16.2753C25.3744 15.3127 24.1136 14.7265 22.7752 14.6027C23.9306 13.5632 24.6595 12.0627 24.6595 10.3864C24.6595 7.25041 22.1183 4.70917 18.9817 4.70917C15.986 4.70917 13.5332 7.02959 13.3203 9.97038C15.9854 11.1233 17.8556 13.7792 17.8556 16.8627C17.8556 17.9888 17.5994 19.0892 17.123 20.0878C17.8093 20.4464 18.4418 20.91 18.9933 21.4663C20.4072 22.8901 21.2106 24.8585 21.1954 26.8654L21.1941 26.9063L21.1929 26.9411L21.1429 27.8908H27.9437L27.9998 20.3696C28.0114 18.8354 27.4106 17.3641 26.3285 16.2753Z" fill="#BABABA"/>
<path d="M14.1423 21.0802C15.2971 20.0414 16.0284 18.5402 16.0284 16.8639C16.0284 13.7273 13.486 11.1855 10.35 11.1855C7.2134 11.1855 4.67155 13.7273 4.67155 16.8639C4.67155 18.5371 5.39989 20.0371 6.55278 21.0766C3.6004 21.3053 1.26839 23.7502 1.24704 26.7605L1.19092 27.8908H9.82418H19.3114L19.3676 26.8453C19.3785 25.3118 18.7771 23.8404 17.6956 22.7516C16.7403 21.7884 15.4801 21.204 14.1423 21.0802Z" fill="#BABABA"/>
<path d="M3.66241 6.93809V9.04745C3.66241 9.92096 4.37245 10.6304 5.24657 10.6304C6.12191 10.6304 6.83073 9.92096 6.83073 9.04745V6.93809H8.93765C9.81177 6.93809 10.5212 6.22805 10.5212 5.35393C10.5212 4.48042 9.81177 3.77038 8.93765 3.77038H6.83073V1.69213C6.83073 0.818006 6.12191 0.109192 5.24657 0.109192C4.37245 0.109192 3.66241 0.818006 3.66241 1.69213V3.76977H1.58355C0.708204 3.76977 0 4.47981 0 5.35332C0 6.22744 0.708204 6.93748 1.58355 6.93748L3.66241 6.93809Z" fill="#BABABA"/>
</g>
<defs>
<clipPath id="clip0_2263_3341">
<rect width="28" height="28" fill="white"/>
</clipPath>
</defs>
</svg>
