<svg width="67" height="18" viewBox="0 0 67 18" fill="none" xmlns="http://www.w3.org/2000/svg">
<path d="M6.36207 17.276C4.9514 17.276 3.7554 17.0383 2.77407 16.563C1.79273 16.0723 0.957066 15.4437 0.267066 14.677L2.56707 12.354C3.65573 13.5807 4.9974 14.194 6.59207 14.194C7.45073 14.194 8.08707 14.0177 8.50107 13.665C8.91507 13.3123 9.12207 12.8447 9.12207 12.262C9.12207 11.8173 8.9994 11.4493 8.75407 11.158C8.50873 10.8513 8.0104 10.6443 7.25907 10.537L5.67207 10.33C3.97007 10.1153 2.7204 9.60167 1.92307 8.789C1.14107 7.97633 0.750067 6.89533 0.750067 5.546C0.750067 4.82533 0.888067 4.166 1.16407 3.568C1.44007 2.97 1.83107 2.45633 2.33707 2.027C2.8584 1.59767 3.48707 1.268 4.22307 1.038C4.9744 0.792666 5.8254 0.669999 6.77607 0.669999C7.9874 0.669999 9.05307 0.861666 9.97307 1.245C10.8931 1.62833 11.6827 2.188 12.3421 2.924L10.0191 5.27C9.63573 4.82533 9.16807 4.465 8.61607 4.189C8.0794 3.89767 7.39707 3.752 6.56907 3.752C5.78707 3.752 5.2044 3.89 4.82107 4.166C4.43773 4.442 4.24607 4.82533 4.24607 5.316C4.24607 5.868 4.39173 6.26667 4.68307 6.512C4.98973 6.75733 5.4804 6.93367 6.15507 7.041L7.74207 7.294C9.39807 7.55467 10.6247 8.06833 11.4221 8.835C12.2194 9.58633 12.6181 10.6597 12.6181 12.055C12.6181 12.8217 12.4801 13.527 12.2041 14.171C11.9281 14.815 11.5217 15.367 10.9851 15.827C10.4637 16.287 9.81207 16.6473 9.03007 16.908C8.24807 17.1533 7.35873 17.276 6.36207 17.276ZM15.5166 17V0.946H23.1066C23.8579 0.946 24.5326 1.07633 25.1306 1.337C25.7286 1.58233 26.2346 1.92733 26.6486 2.372C27.0779 2.81667 27.4076 3.361 27.6376 4.005C27.8676 4.63367 27.9826 5.32367 27.9826 6.075C27.9826 6.84167 27.8676 7.53933 27.6376 8.168C27.4076 8.79667 27.0779 9.33333 26.6486 9.778C26.2346 10.2227 25.7286 10.5753 25.1306 10.836C24.5326 11.0813 23.8579 11.204 23.1066 11.204H19.0126V17H15.5166ZM19.0126 8.168H22.6926C23.2139 8.168 23.6203 8.03767 23.9116 7.777C24.2183 7.501 24.3716 7.10233 24.3716 6.581V5.569C24.3716 5.04767 24.2183 4.65667 23.9116 4.396C23.6203 4.12 23.2139 3.982 22.6926 3.982H19.0126V8.168ZM34.1064 17H30.6104V0.946H38.2234C38.9594 0.946 39.6264 1.06867 40.2244 1.314C40.8224 1.55933 41.3284 1.912 41.7424 2.372C42.1717 2.81667 42.5014 3.35333 42.7314 3.982C42.9614 4.61067 43.0764 5.30833 43.0764 6.075C43.0764 7.16367 42.831 8.11433 42.3404 8.927C41.865 9.73967 41.1367 10.33 40.1554 10.698L43.3064 17H39.4194L36.6134 11.112H34.1064V17ZM37.7864 8.168C38.3077 8.168 38.714 8.03767 39.0054 7.777C39.312 7.501 39.4654 7.10233 39.4654 6.581V5.569C39.4654 5.04767 39.312 4.65667 39.0054 4.396C38.714 4.12 38.3077 3.982 37.7864 3.982H34.1064V8.168H37.7864ZM45.4874 17V14.217H47.5574V3.729H45.4874V0.946H53.1234V3.729H51.0534V14.217H53.1234V17H45.4874ZM62.6393 4.051V17H59.1433V4.051H54.7963V0.946H66.9863V4.051H62.6393Z" fill="#83D1D6"/>
</svg>
