<svg width="69" height="18" viewBox="0 0 69 18" fill="none" xmlns="http://www.w3.org/2000/svg">
<g clip-path="url(#clip0_655_726)">
<path d="M6.25631 17.0492C4.80677 17.0492 3.58042 16.8001 2.57255 16.3044C1.56469 15.8087 0.70718 15.165 -0.00231934 14.378C1.16295 13.1986 2.91556 12.8791 4.45672 13.4899C5.08399 13.7389 5.76295 13.8611 6.49124 13.8611C7.37225 13.8611 8.02536 13.6826 8.45059 13.3231C8.87582 12.9637 9.08726 12.4891 9.08726 11.8947C9.08726 11.4413 8.9604 11.0631 8.70902 10.76C8.45764 10.4569 7.94548 10.2478 7.1749 10.1398L5.54446 9.92832C3.79656 9.70748 2.51852 9.17888 1.708 8.34487C0.897476 7.50851 0.491041 6.39962 0.491041 5.01116C0.491041 4.27112 0.632001 3.59216 0.916271 2.97664C1.20054 2.36111 1.60463 1.83486 2.13323 1.39319C2.65948 0.951511 3.30555 0.608508 4.06908 0.364177C4.83261 0.119846 5.70187 -0.00231934 6.67919 -0.00231934C7.92199 -0.00231934 9.01678 0.195025 9.96121 0.589713C10.9056 0.984402 11.7162 1.55999 12.3928 2.31647L10.0082 4.72924C9.61351 4.27817 9.13895 3.90698 8.5798 3.61801C8.02066 3.32904 7.31586 3.18573 6.4654 3.18573C5.66193 3.18573 5.0652 3.32669 4.67051 3.60626C4.27582 3.88583 4.08083 4.27582 4.08083 4.77388C4.08083 5.33537 4.23353 5.73946 4.5413 5.98849C4.84906 6.23752 5.34712 6.41607 6.04017 6.52648L7.67061 6.78726C9.37153 7.05509 10.6308 7.57899 11.4483 8.35897C12.2659 9.13895 12.677 10.2455 12.677 11.6809C12.677 12.468 12.5361 13.1939 12.2518 13.8564C11.9675 14.5189 11.5541 15.0851 11.0114 15.5573C10.4687 16.0295 9.79441 16.396 8.99329 16.6568C8.18981 16.9176 7.27827 17.0468 6.25396 17.0468L6.25631 17.0492Z" fill="#83D1D6"/>
<path d="M15.4891 17.2207V0.284302H23.2819C24.0525 0.284302 24.7455 0.413515 25.3587 0.674291C25.9719 0.935068 26.4958 1.29217 26.9281 1.74794C27.3603 2.20371 27.6963 2.7605 27.9312 3.41362C28.1662 4.06673 28.286 4.77858 28.286 5.55151C28.286 6.32444 28.1685 7.05509 27.9312 7.70115C27.6963 8.34722 27.3603 8.89697 26.9281 9.35509C26.4958 9.81086 25.9719 10.1703 25.3587 10.4287C24.7455 10.6895 24.0525 10.8187 23.2819 10.8187H19.0789V13.6356C19.0789 15.6184 17.472 17.2254 15.4891 17.2254V17.2207ZM19.0789 7.69646H22.8567C23.3923 7.69646 23.8128 7.55785 24.1206 7.28297C24.4284 7.0081 24.5811 6.60167 24.5811 6.06602V5.02761C24.5811 4.49196 24.4284 4.08788 24.1206 3.81065C23.8128 3.53578 23.3923 3.39717 22.8567 3.39717H19.0789V7.69411V7.69646Z" fill="#83D1D6"/>
<path d="M30.8139 17.2207V0.284302H38.6301C39.3866 0.284302 40.0703 0.411166 40.6835 0.662545C41.2966 0.913924 41.8205 1.27337 42.2528 1.73619C42.6851 2.20136 43.0211 2.7558 43.256 3.40187C43.4909 4.04794 43.6107 4.76448 43.6107 5.55151C43.6107 6.6698 43.3617 7.64477 42.866 8.47879C42.3703 9.3128 41.6185 9.91893 40.6106 10.2972L43.8457 16.7672H39.8541L36.9739 10.7224H34.399V13.6332C34.399 15.6161 32.792 17.223 30.8092 17.223L30.8139 17.2207ZM38.1814 7.69646C38.7171 7.69646 39.1376 7.55785 39.4454 7.28297C39.7531 7.0081 39.9058 6.60167 39.9058 6.06602V5.02761C39.9058 4.49196 39.7531 4.08788 39.4454 3.81065C39.1376 3.53578 38.7171 3.39717 38.1814 3.39717H34.4037V7.69411H38.1814V7.69646Z" fill="#83D1D6"/>
<path d="M45.9248 16.7649V13.9081H48.5138V3.14109H45.9248V0.284302H54.6902V3.14109H52.1012V13.9081H55.4796C55.4796 15.4869 53.9643 16.7649 52.3879 16.7649H45.9225H45.9248Z" fill="#83D1D6"/>
<path d="M64.3013 3.47V13.6309C64.3013 15.6137 62.6944 17.2207 60.7115 17.2207V3.47H56.2478V0.284302H68.9977C68.9977 2.04395 67.5716 3.47235 65.8096 3.47235H64.299L64.3013 3.47Z" fill="#83D1D6"/>
</g>
<defs>
<clipPath id="clip0_655_726">
<rect width="69" height="17.2206" fill="white"/>
</clipPath>
</defs>
</svg>
