<svg width="15" height="18" viewBox="0 0 15 18" fill="none" xmlns="http://www.w3.org/2000/svg">
<path d="M10.2569 16.209C9.84734 17.253 8.76501 18 7.49743 18C6.72713 18 5.96658 17.712 5.43029 17.199C5.11827 16.929 4.88425 16.569 4.74774 16.2C4.8745 16.218 5.00126 16.227 5.13777 16.245C5.36203 16.272 5.59606 16.299 5.83007 16.317C6.38586 16.362 6.9514 16.389 7.51693 16.389C8.07272 16.389 8.62851 16.362 9.17454 16.317C9.3793 16.299 9.58407 16.29 9.77908 16.263C9.93509 16.245 10.0911 16.227 10.2569 16.209Z" fill="#969696"/>
<path d="M14.6546 11.241L13.6795 9.747C13.4748 9.414 13.2895 8.784 13.2895 8.415V6.138C13.2895 4.023 11.9439 2.196 10.0035 1.341C9.49649 0.513 8.56043 0 7.48786 0C6.42504 0 5.46952 0.531 4.96249 1.368C3.06111 2.241 1.74477 4.05 1.74477 6.138V8.415C1.74477 8.784 1.55951 9.414 1.35475 9.738L0.369935 11.241C-0.0200904 11.844 -0.107846 12.51 0.13592 13.122C0.369935 13.725 0.925721 14.193 1.64727 14.418C3.53889 15.012 5.52802 15.3 7.51711 15.3C9.50624 15.3 11.4954 15.012 13.387 14.427C14.0695 14.22 14.5961 13.743 14.8496 13.122C15.1031 12.501 15.0349 11.817 14.6546 11.241Z" fill="#969696"/>
</svg>
