<svg width="30" height="30" viewBox="0 0 30 30" fill="none" xmlns="http://www.w3.org/2000/svg">
<rect width="30" height="30" rx="15" fill="#55D976"/>
<path fill-rule="evenodd" clip-rule="evenodd" d="M10.7033 7.58363C10.096 7.66362 9.77444 7.80993 9.54539 8.03433C9.31634 8.25874 9.16701 8.57379 9.08537 9.16875C9.00132 9.78119 9 10.5929 9 11.7568V18.1831C9.2915 17.9836 9.62005 17.8317 9.97424 17.7388C10.3704 17.6347 10.8323 17.6349 11.5092 17.6351H21V11.7568C21 10.5929 20.9986 9.78119 20.9146 9.16874C20.833 8.57379 20.6837 8.25874 20.4546 8.03433C20.2256 7.80993 19.904 7.66362 19.2968 7.58363C18.6716 7.50129 17.8431 7.5 16.6552 7.5H13.3448C12.1569 7.5 11.3284 7.50129 10.7033 7.58363ZM11.069 10.9459C11.069 10.6101 11.3469 10.3378 11.6897 10.3378H18.3103C18.6532 10.3378 18.931 10.6101 18.931 10.9459C18.931 11.2818 18.6532 11.5541 18.3103 11.5541H11.6897C11.3469 11.5541 11.069 11.2818 11.069 10.9459ZM11.6897 13.1757C11.3469 13.1757 11.069 13.4479 11.069 13.7838C11.069 14.1196 11.3469 14.3919 11.6897 14.3919H15.8276C16.1704 14.3919 16.4482 14.1196 16.4482 13.7838C16.4482 13.4479 16.1704 13.1757 15.8276 13.1757H11.6897Z" fill="white"/>
<path d="M11.6054 18.8513H12.5176H15.8279H20.9996C20.997 19.6993 20.9835 20.3316 20.915 20.8312C20.8333 21.4262 20.684 21.7413 20.4549 21.9657C20.2259 22.1901 19.9043 22.3363 19.2971 22.4164C18.6719 22.4987 17.8434 22.5 16.6555 22.5H13.3451C12.1572 22.5 11.3287 22.4987 10.7036 22.4164C10.0963 22.3363 9.77476 22.1901 9.54571 21.9657C9.31666 21.7413 9.16733 21.4262 9.08569 20.8312C9.05476 20.6059 9.03505 20.3536 9.02246 20.0668C9.22598 19.5033 9.70056 19.0698 10.2959 18.9135C10.5127 18.8566 10.7958 18.8513 11.6054 18.8513Z" fill="white"/>
</svg>
