<svg width="26" height="26" viewBox="0 0 26 26" fill="none" xmlns="http://www.w3.org/2000/svg">
<path d="M25.7175 7.47072V18.2463C25.7175 22.374 22.3742 25.7173 18.2466 25.7173H7.47094C3.34328 25.7173 0 22.374 0 18.2463V7.47072C0 4.26889 1.31159 1.94146 3.63903 0.809884C4.48771 0.398404 5.46497 1.04134 5.46497 1.98003V13.3986C5.46497 14.9288 6.05648 16.1503 7.12375 16.7676C8.20389 17.3719 9.56692 17.2433 10.9557 16.4075L12.6273 15.4045C12.7302 15.3531 12.9874 15.3531 13.0645 15.3917L14.7619 16.4075C15.6877 16.9605 16.4849 17.1405 17.1279 17.1405C17.7965 17.1405 18.3109 16.9347 18.6195 16.7547C19.661 16.1504 20.2526 14.9288 20.2526 13.3986V1.98003C20.2526 1.04134 21.2427 0.398404 22.0785 0.809884C24.4059 1.94146 25.7175 4.26889 25.7175 7.47072Z" fill="#83D1D6"/>
<path d="M17.0379 0C17.7451 0 18.3237 0.578644 18.3237 1.28588V13.3988C18.3237 14.2218 18.0794 14.839 17.6551 15.0833C17.2179 15.3405 16.5235 15.2119 15.752 14.749L14.0546 13.7332C13.3988 13.3345 12.3187 13.3345 11.6629 13.7332L9.96555 14.749C9.19403 15.2119 8.49965 15.3276 8.06246 15.0833C7.63812 14.839 7.3938 14.2218 7.3938 13.3988V1.28588C7.3938 0.578644 7.97244 0 8.67968 0H17.0379Z" fill="#83D1D6"/>
</svg>
