<svg width="28" height="28" viewBox="0 0 28 28" fill="none" xmlns="http://www.w3.org/2000/svg">
<rect width="28" height="28" rx="14" fill="white"/>
<path fill-rule="evenodd" clip-rule="evenodd" d="M12.3333 20.25H15.6667C18.0075 20.25 19.1779 20.25 20.0186 19.6985C20.3825 19.4597 20.695 19.1528 20.9383 18.7955C21.5 17.9701 21.5 16.8209 21.5 14.5227C21.5 12.2245 21.5 11.0754 20.9383 10.25C20.695 9.89261 20.3825 9.58578 20.0186 9.34701C19.4783 8.9926 18.802 8.86592 17.7665 8.82064C17.2723 8.82064 16.8469 8.45301 16.75 7.97727C16.6046 7.26367 15.9664 6.75 15.2253 6.75H12.7747C12.0335 6.75 11.3954 7.26367 11.25 7.97727C11.1531 8.45301 10.7276 8.82064 10.2335 8.82064C9.198 8.86592 8.52166 8.9926 7.98143 9.34701C7.61746 9.58578 7.30496 9.89261 7.06177 10.25C6.5 11.0754 6.5 12.2245 6.5 14.5227C6.5 16.8209 6.5 17.9701 7.06177 18.7955C7.30496 19.1528 7.61746 19.4597 7.98143 19.6985C8.82218 20.25 9.99256 20.25 12.3333 20.25ZM14 11.4545C12.2741 11.4545 10.875 12.8282 10.875 14.5227C10.875 16.2172 12.2741 17.5909 14 17.5909C15.7259 17.5909 17.125 16.2172 17.125 14.5227C17.125 12.8282 15.7259 11.4545 14 11.4545ZM14 12.6818C12.9645 12.6818 12.125 13.506 12.125 14.5227C12.125 15.5394 12.9645 16.3637 14 16.3637C15.0355 16.3637 15.875 15.5394 15.875 14.5227C15.875 13.506 15.0355 12.6818 14 12.6818ZM17.5417 12.0682C17.5417 11.7293 17.8215 11.4545 18.1667 11.4545H19C19.3452 11.4545 19.625 11.7293 19.625 12.0682C19.625 12.4071 19.3452 12.6818 19 12.6818H18.1667C17.8215 12.6818 17.5417 12.4071 17.5417 12.0682Z" fill="#969696"/>
</svg>
