<svg width="26" height="26" viewBox="0 0 26 26" fill="none" xmlns="http://www.w3.org/2000/svg">
<path d="M13 25.1875C6.26875 25.1875 0.8125 19.7313 0.8125 13C0.8125 6.26875 6.26875 0.8125 13 0.8125C19.7313 0.8125 25.1875 6.26875 25.1875 13C25.1875 19.7313 19.7313 25.1875 13 25.1875ZM18.5884 9.44594C18.8172 9.21719 18.8172 8.845 18.5884 8.61625L17.3434 7.37219C17.1147 7.14344 16.7425 7.14344 16.5137 7.37219L12.9878 10.8981L9.46187 7.37219C9.23312 7.14344 8.86094 7.14344 8.63219 7.37219L7.38719 8.61625C7.15844 8.845 7.15844 9.21719 7.38719 9.44594L10.9141 12.9728L7.38719 16.4978C7.15844 16.7266 7.15844 17.0987 7.38719 17.3275L8.63219 18.5725C8.86094 18.8013 9.23312 18.8013 9.46187 18.5725L12.9878 15.0456L16.5137 18.5725C16.7425 18.8013 17.1147 18.8013 17.3434 18.5725L18.5884 17.3275C18.8172 17.0987 18.8172 16.7266 18.5884 16.4978L15.0616 12.9728L18.5884 9.44594Z" fill="#BABABA"/>
</svg>
