<svg width="15" height="15" viewBox="0 0 15 15" fill="none" xmlns="http://www.w3.org/2000/svg">
<g clip-path="url(#clip0_582_1139)">
<path d="M6.036 7.81799L4.921 6.72799C4.84657 6.64776 4.75637 6.58378 4.65604 6.54007C4.55571 6.49636 4.44744 6.47386 4.338 6.47399C4.22838 6.47562 4.12022 6.49941 4.02003 6.54392C3.91985 6.58843 3.82969 6.65274 3.755 6.73299C3.6741 6.80874 3.60956 6.90026 3.56536 7.0019C3.52116 7.10354 3.49824 7.21315 3.498 7.32399C3.49824 7.43482 3.52116 7.54444 3.56536 7.64608C3.60956 7.74772 3.6741 7.83923 3.755 7.91499L5.436 9.60099C5.51284 9.68329 5.60571 9.74899 5.7089 9.79405C5.81209 9.83911 5.92341 9.86257 6.036 9.86299C6.1486 9.86257 6.25991 9.83911 6.3631 9.79405C6.46629 9.74899 6.55916 9.68329 6.636 9.60099L10.422 5.80999C10.5029 5.734 10.5673 5.6421 10.611 5.54004C10.6547 5.43799 10.6768 5.328 10.676 5.21699C10.6751 5.10577 10.6517 4.99589 10.6072 4.89396C10.5627 4.79204 10.498 4.7002 10.417 4.62399C10.343 4.54387 10.2533 4.47973 10.1536 4.43554C10.0538 4.39134 9.94609 4.36801 9.837 4.36699C9.72791 4.36801 9.62018 4.39134 9.52044 4.43554C9.42069 4.47973 9.33104 4.54387 9.257 4.62399L6.036 7.81799ZM1.713 14.208C1.4869 14.2122 1.26233 14.17 1.05318 14.084C0.844034 13.998 0.654741 13.87 0.497001 13.708C0.334958 13.5502 0.206983 13.361 0.120983 13.1518C0.0349838 12.9427 -0.00721245 12.7181 -0.00299925 12.492V1.71299C-0.00721245 1.48689 0.0349838 1.26232 0.120983 1.05317C0.206983 0.844024 0.334958 0.654731 0.497001 0.496991C0.654741 0.334948 0.844034 0.206968 1.05318 0.120969C1.26233 0.0349696 1.4869 -0.00722196 1.713 -0.00300876H12.494C12.7201 -0.00722196 12.9447 0.0349696 13.1538 0.120969C13.363 0.206968 13.5523 0.334948 13.71 0.496991C13.872 0.654731 14 0.844024 14.086 1.05317C14.172 1.26232 14.2142 1.48689 14.21 1.71299V12.494C14.2142 12.7201 14.172 12.9447 14.086 13.1538C14 13.363 13.872 13.5522 13.71 13.71C13.5523 13.872 13.363 14 13.1538 14.086C12.9447 14.172 12.7201 14.2142 12.494 14.21L1.713 14.208Z" fill="#36CED8"/>
</g>
<defs>
<clipPath id="clip0_582_1139">
<rect width="14.208" height="14.208" fill="white"/>
</clipPath>
</defs>
</svg>
