<svg width="25" height="25" viewBox="0 0 25 25" fill="none" xmlns="http://www.w3.org/2000/svg">
<path d="M18.75 3.125C20.4759 3.125 21.875 4.52411 21.875 6.25V18.75C21.875 20.4759 20.4759 21.875 18.75 21.875H6.25C4.52411 21.875 3.125 20.4759 3.125 18.75V6.25C3.125 4.52411 4.52411 3.125 6.25 3.125H18.75ZM17.1559 8.30174L10.4167 15.041L7.84409 12.4684C7.539 12.1633 7.04434 12.1633 6.73924 12.4684C6.43414 12.7735 6.43414 13.2682 6.73924 13.5733L9.86424 16.6983C10.1693 17.0034 10.664 17.0034 10.9691 16.6983L18.2608 9.40659C18.5659 9.1015 18.5659 8.60684 18.2608 8.30174C17.9557 7.99664 17.461 7.99664 17.1559 8.30174Z" fill="#D9D9D9"/>
</svg>
