<svg width="14" height="14" viewBox="0 0 14 14" fill="none" xmlns="http://www.w3.org/2000/svg">
<g clip-path="url(#clip0_1165_3065)">
<path fill-rule="evenodd" clip-rule="evenodd" d="M12.8333 7.00016C12.8333 10.2218 10.2217 12.8335 7.00001 12.8335C3.77838 12.8335 1.16668 10.2218 1.16668 7.00016C1.16668 3.77853 3.77838 1.16683 7.00001 1.16683C10.2217 1.16683 12.8333 3.77853 12.8333 7.00016ZM7.58334 4.66683C7.58334 4.34465 7.32219 4.0835 7.00001 4.0835C6.67784 4.0835 6.41668 4.34465 6.41668 4.66683V7.92521L5.66249 7.17102C5.43469 6.94323 5.06533 6.94323 4.83754 7.17102C4.60974 7.39881 4.60974 7.76818 4.83754 7.99597L6.53679 9.6952C6.54554 9.70399 6.55452 9.71248 6.56368 9.72067C6.67054 9.84101 6.82641 9.91683 7.00001 9.91683C7.17361 9.91683 7.32948 9.84101 7.43634 9.72067C7.4455 9.71249 7.45449 9.70399 7.46324 9.6952L9.16249 7.99597C9.39029 7.76818 9.39029 7.39881 9.16249 7.17102C8.93468 6.94323 8.56534 6.94323 8.33753 7.17102L7.58334 7.92521V4.66683Z" fill="#FF5F5F"/>
</g>
<defs>
<clipPath id="clip0_1165_3065">
<rect width="14" height="14" fill="white" transform="matrix(-1 0 0 -1 14 14)"/>
</clipPath>
</defs>
</svg>