<svg width="20" height="20" viewBox="0 0 20 20" fill="none" xmlns="http://www.w3.org/2000/svg">
<g clip-path="url(#clip0_1860_3111)">
<path d="M12.7389 2.62651L11.9666 3.39891L4.86552 10.4999C4.38456 10.9809 4.14407 11.2214 3.93725 11.4865C3.69328 11.7994 3.48412 12.1378 3.31345 12.4959C3.16878 12.7994 3.06124 13.1221 2.84614 13.7674L1.93468 16.5018L1.71188 17.1702C1.60603 17.4877 1.68867 17.8378 1.92536 18.0745C2.16205 18.3112 2.51215 18.3939 2.8297 18.288L3.4981 18.0652L6.23249 17.1537C6.87777 16.9386 7.20042 16.8311 7.50399 16.6864C7.86208 16.5158 8.20052 16.3066 8.51334 16.0626C8.7785 15.8558 9.01892 15.6153 9.49992 15.1344L16.6009 8.0333L17.3733 7.26091C18.6531 5.98115 18.6531 3.90626 17.3733 2.62651C16.0936 1.34675 14.0187 1.34675 12.7389 2.62651Z" stroke="black" stroke-width="1.4"/>
<path d="M11.9669 3.39844C11.9669 3.39844 12.0635 5.03979 13.5117 6.48804C14.96 7.93629 16.6013 8.03284 16.6013 8.03284M3.49848 18.0648L1.93506 16.5013" stroke="black" stroke-width="1.4"/>
</g>
<defs>
<clipPath id="clip0_1860_3111">
<rect width="20" height="20" fill="white"/>
</clipPath>
</defs>
</svg>
