<svg width="28" height="26" viewBox="0 0 28 26" fill="none" xmlns="http://www.w3.org/2000/svg">
<path d="M26.975 26H0.975C0.442 26 0 25.558 0 25.025C0 24.492 0.442 24.05 0.975 24.05H26.975C27.508 24.05 27.95 24.492 27.95 25.025C27.95 25.558 27.508 26 26.975 26Z" fill="#BABABA"/>
<path d="M11.05 2.6V26H16.9V2.6C16.9 1.17 16.315 0 14.56 0H13.39C11.635 0 11.05 1.17 11.05 2.6Z" fill="#BABABA"/>
<path d="M2.27502 10.4V26H7.47502V10.4C7.47502 8.97002 6.95502 7.80002 5.39502 7.80002H4.35502C2.79502 7.80002 2.27502 8.97002 2.27502 10.4Z" fill="#BABABA"/>
<path d="M20.475 16.9V26H25.675V16.9C25.675 15.47 25.155 14.3 23.595 14.3H22.555C20.995 14.3 20.475 15.47 20.475 16.9Z" fill="#BABABA"/>
</svg>
