<svg width="21" height="26" viewBox="0 0 21 26" fill="none" xmlns="http://www.w3.org/2000/svg">
<path fill-rule="evenodd" clip-rule="evenodd" d="M14.2998 10.4002C15.0178 10.4002 15.5998 10.9822 15.5998 11.7002V19.5001C15.5998 20.2181 15.0178 20.8001 14.2998 20.8001C13.5818 20.8001 12.9998 20.2181 12.9998 19.5001V11.7002C12.9998 10.9822 13.5818 10.4002 14.2998 10.4002ZM10.3999 11.7002C11.1179 11.7002 11.6999 12.2822 11.6999 13.0002V19.5001C11.6999 20.2181 11.1179 20.8001 10.3999 20.8001C9.68189 20.8001 9.09989 20.2181 9.09989 19.5001V13.0002C9.09989 12.2822 9.68189 11.7002 10.3999 11.7002ZM7.7999 15.6001C7.7999 14.8821 7.21789 14.3001 6.49992 14.3001C5.78197 14.3001 5.19994 14.8821 5.19994 15.6001V19.5001C5.19994 20.2181 5.78197 20.8001 6.49992 20.8001C7.21788 20.8001 7.7999 20.2181 7.7999 19.5001V15.6001ZM11.0265 0.000179237C11.9089 -0.00117275 12.692 -0.0023687 13.4153 0.297238C14.1386 0.596846 14.6916 1.15147 15.3146 1.77641C16.5491 3.01466 17.7855 4.25105 19.0237 5.4855C19.6486 6.10852 20.2033 6.66145 20.5028 7.38476C20.8025 8.10809 20.8013 8.89125 20.7999 9.77369C20.7949 13.0444 20.7997 16.315 20.7997 19.5857C20.7999 20.7382 20.7999 21.7311 20.693 22.5262C20.5784 23.3783 20.32 24.1952 19.6574 24.8578C18.995 25.5203 18.1781 25.7787 17.3259 25.8933C16.5307 26.0001 15.5378 26.0001 14.3854 26H6.41438C5.26195 26.0001 4.26899 26.0001 3.47383 25.8933C2.62168 25.7787 1.80484 25.5203 1.14227 24.8578C0.479723 24.1952 0.221364 23.3783 0.106797 22.5262C-0.000113845 21.7311 -6.18179e-05 20.7382 3.18126e-06 19.5857L1.61988e-05 6.50029C1.61988e-05 6.47167 3.18126e-06 6.44313 3.18126e-06 6.41471C-6.18179e-05 5.26229 -0.000113845 4.26935 0.106797 3.47419C0.221364 2.62204 0.479723 1.80519 1.14229 1.14264C1.80483 0.480081 2.62168 0.221722 3.47383 0.107155C4.26898 0.000244301 5.26193 0.000296327 6.41436 0.000361326C7.95174 0.000452325 9.4891 0.00254521 11.0265 0.000179237Z" fill="#BABABA"/>
</svg>
