<svg width="27" height="26" viewBox="0 0 27 26" fill="none" xmlns="http://www.w3.org/2000/svg">
<path fill-rule="evenodd" clip-rule="evenodd" d="M16.1364 1.01957C14.607 -0.339856 12.3024 -0.339856 10.7731 1.01957L0.451611 10.1942C-0.103786 10.6879 -0.153811 11.5383 0.339869 12.0938C0.833549 12.649 1.68398 12.6991 2.23936 12.2054L2.69096 11.8041V19.3612C2.69089 20.5539 2.69084 21.5816 2.80147 22.4046C2.92005 23.2866 3.18746 24.1321 3.8732 24.8177C4.55893 25.5035 5.40436 25.7709 6.28634 25.8895C7.10931 26.0001 8.13699 26 9.32974 26H17.5797C18.7724 26 19.8001 26.0001 20.6231 25.8895C21.5051 25.7709 22.3506 25.5035 23.0362 24.8177C23.722 24.1321 23.9893 23.2866 24.108 22.4046C24.2186 21.5816 24.2186 20.5539 24.2185 19.3613V11.8041L24.67 12.2054C25.2254 12.6991 26.0759 12.649 26.5695 12.0938C27.0632 11.5383 27.0133 10.6879 26.4579 10.1942L16.1364 1.01957ZM13.4547 17.9272C12.7116 17.9272 12.1092 18.5295 12.1092 19.2726V21.9636C12.1092 22.7067 11.5069 23.3091 10.7638 23.3091C10.0207 23.3091 9.4183 22.7067 9.4183 21.9636V19.2726C9.4183 17.0433 11.2254 15.2362 13.4547 15.2362C15.684 15.2362 17.4911 17.0433 17.4911 19.2726V21.9636C17.4911 22.7067 16.8888 23.3091 16.1456 23.3091C15.4025 23.3091 14.8002 22.7067 14.8002 21.9636V19.2726C14.8002 18.5295 14.1978 17.9272 13.4547 17.9272Z" fill="#83D1D6"/>
</svg>
