<svg width="18" height="18" viewBox="0 0 18 18" fill="none" xmlns="http://www.w3.org/2000/svg">
<path d="M18 9C18 10.78 17.4722 12.5201 16.4832 14.0001C15.4943 15.4802 14.0887 16.6337 12.4442 17.3149C10.7996 17.9961 8.99002 18.1743 7.24419 17.8271C5.49836 17.4798 3.89472 16.6226 2.63604 15.364C1.37737 14.1053 0.520203 12.5016 0.172936 10.7558C-0.17433 9.00998 0.00389949 7.20038 0.685088 5.55585C1.36628 3.91131 2.51983 2.50571 3.99987 1.51677C5.47991 0.527841 7.21997 0 9 0C10.1819 0 11.3522 0.232792 12.4442 0.685084C13.5361 1.13738 14.5282 1.80031 15.364 2.63604C16.1997 3.47177 16.8626 4.46392 17.3149 5.55585C17.7672 6.64778 18 7.8181 18 9ZM10.2959 4.67677C10.2962 4.42131 10.2206 4.17152 10.0789 3.959C9.9371 3.74648 9.73549 3.58078 9.49953 3.48286C9.26358 3.38495 9.00389 3.35921 8.75331 3.40891C8.50273 3.45861 8.27251 3.58152 8.0918 3.76208C7.91108 3.94264 7.78797 4.17274 7.73805 4.42328C7.68813 4.67381 7.71364 4.93353 7.81135 5.16957C7.90905 5.40561 8.07458 5.60736 8.28697 5.74931C8.49936 5.89126 8.74909 5.96703 9.00455 5.96703C9.34666 5.96703 9.67478 5.83129 9.9169 5.58959C10.159 5.3479 10.2953 5.01888 10.2959 4.67677ZM9.90489 7.95528C9.90919 7.83443 9.88909 7.71396 9.84581 7.60104C9.80253 7.48813 9.73694 7.38509 9.65297 7.29807C9.56899 7.21106 9.46835 7.14185 9.35704 7.09458C9.24573 7.04732 9.12605 7.02296 9.00512 7.02296C8.88419 7.02296 8.7645 7.04732 8.6532 7.09458C8.54189 7.14185 8.44125 7.21106 8.35727 7.29807C8.27329 7.38509 8.20771 7.48813 8.16443 7.60104C8.12114 7.71396 8.10105 7.83443 8.10535 7.95528V13.87C8.11363 14.1031 8.21206 14.3239 8.37989 14.4859C8.54773 14.6479 8.77187 14.7384 9.00512 14.7384C9.23837 14.7384 9.46251 14.6479 9.63034 14.4859C9.79818 14.3239 9.8966 14.1031 9.90489 13.87V7.95528Z" fill="#969696"/>
</svg>
