<svg width="16" height="17" viewBox="0 0 16 17" fill="none" xmlns="http://www.w3.org/2000/svg">
<g clip-path="url(#clip0_2374_3896)">
<path fill-rule="evenodd" clip-rule="evenodd" d="M8 11.5012C9.65687 11.5012 11 10.1581 11 8.50123C11 6.84437 9.65687 5.50122 8 5.50122C6.34315 5.50122 5 6.84437 5 8.50123C5 10.1581 6.34315 11.5012 8 11.5012ZM8 10.169C7.07893 10.169 6.33221 9.4223 6.33221 8.50123C6.33221 7.5801 7.07893 6.83343 8 6.83343C8.92107 6.83343 9.6678 7.5801 9.6678 8.50123C9.6678 9.4223 8.92107 10.169 8 10.169Z" fill="#36CED8"/>
<path fill-rule="evenodd" clip-rule="evenodd" d="M7.33333 1.16667C7.33333 0.798477 7.6318 0.5 8 0.5C8.3682 0.5 8.66667 0.798477 8.66667 1.16667V1.86625C11.8163 2.17896 14.3211 4.68372 14.6337 7.83333H15.3333C15.7015 7.83333 16 8.1318 16 8.5C16 8.8682 15.7015 9.16667 15.3333 9.16667H14.6337C14.3211 12.3163 11.8163 14.8211 8.66667 15.1337V15.8333C8.66667 16.2015 8.3682 16.5 8 16.5C7.6318 16.5 7.33333 16.2015 7.33333 15.8333V15.1337C4.18372 14.8211 1.67896 12.3163 1.36625 9.16667H0.666667C0.298477 9.16667 0 8.8682 0 8.5C-7.94727e-08 8.1318 0.298477 7.83333 0.666667 7.83333H1.36625C1.67896 4.68372 4.18372 2.17896 7.33333 1.86625V1.16667ZM8 13.8344C5.05389 13.8344 2.66559 11.4461 2.66559 8.5C2.66559 5.55389 5.05389 3.16559 8 3.16559C10.9461 3.16559 13.3344 5.55389 13.3344 8.5C13.3344 11.4461 10.9461 13.8344 8 13.8344Z" fill="#36CED8"/>
</g>
<defs>
<clipPath id="clip0_2374_3896">
<rect width="16" height="16" fill="white" transform="translate(0 0.5)"/>
</clipPath>
</defs>
</svg>
