<svg width="38" height="55" viewBox="0 0 38 55" fill="none" xmlns="http://www.w3.org/2000/svg">
<g clip-path="url(#clip0_2372_3852)">
<path fill-rule="evenodd" clip-rule="evenodd" d="M27.1428 20.9047C27.1428 16.3677 23.4975 12.6904 19 12.6904C14.5025 12.6904 10.8572 16.3677 10.8572 20.9047C10.8572 25.4417 14.5025 29.119 19 29.119C23.4975 29.119 27.1428 25.4417 27.1428 20.9047ZM38 19.1667C38 29.7522 19 54.7619 19 54.7619C19 54.7619 0 29.7522 0 19.1667C0 8.58117 8.50655 0 19 0C29.4935 0 38 8.58117 38 19.1667ZM21.7143 20.9047C21.7143 22.4134 20.4955 23.6428 19 23.6428C17.5045 23.6428 16.2857 22.4134 16.2857 20.9047C16.2857 19.396 17.5045 18.1666 19 18.1666C20.4955 18.1666 21.7143 19.396 21.7143 20.9047Z" fill="#36CED8"/>
<path d="M19.0001 29.1667C23.5625 29.1667 27.261 25.4357 27.261 20.8333C27.261 16.231 23.5625 12.5 19.0001 12.5C14.4378 12.5 10.7393 16.231 10.7393 20.8333C10.7393 25.4357 14.4378 29.1667 19.0001 29.1667Z" fill="white"/>
</g>
<defs>
<clipPath id="clip0_2372_3852">
<rect width="38" height="55" fill="white"/>
</clipPath>
</defs>
</svg>
