<svg width="17" height="18" viewBox="0 0 17 18" fill="none" xmlns="http://www.w3.org/2000/svg">
<path fill-rule="evenodd" clip-rule="evenodd" d="M0 6.56757V11.4324C0 13.7258 1.14441e-07 14.8724 0.72161 15.5849C1.37719 16.2321 2.39578 16.2913 4.31846 16.2968C4.21686 15.6224 4.19563 14.8168 4.19029 13.8689C4.18802 13.4659 4.51709 13.1374 4.92529 13.1351C5.33348 13.1329 5.66624 13.4578 5.66851 13.8608C5.67451 14.9247 5.70249 15.6789 5.80898 16.2512C5.91158 16.8027 6.07634 17.1219 6.31626 17.3588C6.589 17.6281 6.9719 17.8037 7.6951 17.8996C8.4395 17.9985 9.4261 18 10.8407 18H11.8262C13.2407 18 14.2273 17.9985 14.9717 17.8996C15.6949 17.8037 16.0778 17.6281 16.3505 17.3588C16.6233 17.0895 16.8011 16.7114 16.8983 15.9975C16.9984 15.2626 17 14.2885 17 12.8919V5.10811C17 3.71149 16.9984 2.73743 16.8983 2.0025C16.8011 1.28855 16.6233 0.91048 16.3505 0.6412C16.0778 0.37192 15.6949 0.19635 14.9717 0.10036C14.2273 0.00154992 13.2407 0 11.8262 0H10.8407C9.4261 0 8.4395 0.00154992 7.6951 0.10036C6.9719 0.19635 6.589 0.37192 6.31626 0.6412C6.07634 0.87807 5.91158 1.19728 5.80898 1.74877C5.70249 2.32112 5.67451 3.07525 5.66851 4.1392C5.66624 4.54221 5.33348 4.8671 4.92529 4.86485C4.51709 4.86261 4.18802 4.53409 4.19029 4.13107C4.19563 3.18322 4.21686 2.37758 4.31846 1.70325C2.39578 1.70867 1.37719 1.76789 0.72161 2.41515C1.14441e-07 3.12759 0 4.27425 0 6.56757ZM2.43385 9.516C2.1452 9.231 2.1452 8.769 2.43385 8.484L4.40484 6.53806C4.69348 6.25308 5.16147 6.25308 5.45011 6.53806C5.73876 6.82304 5.73876 7.2851 5.45011 7.5701L4.74088 8.2703H11.8259C12.2341 8.2703 12.5651 8.597 12.5651 9C12.5651 9.403 12.2341 9.7297 11.8259 9.7297H4.74088L5.45011 10.4299C5.73876 10.7149 5.73876 11.177 5.45011 11.4619C5.16147 11.7469 4.69348 11.7469 4.40484 11.4619L2.43385 9.516Z" fill="#969696"/>
</svg>
