<svg width="83" height="18" viewBox="0 0 83 18" fill="none" xmlns="http://www.w3.org/2000/svg">
<g clip-path="url(#clip0_1494_2032)">
<path d="M31.3564 16.1293C30.1749 16.1293 29.1753 15.9263 28.3539 15.5222C27.5324 15.1182 26.8334 14.5935 26.2551 13.952C27.2049 12.9907 28.6334 12.7303 29.8896 13.2282C30.4009 13.4312 30.9543 13.5307 31.5479 13.5307C32.266 13.5307 32.7983 13.3852 33.1449 13.0922C33.4915 12.7993 33.6639 12.4124 33.6639 11.928C33.6639 11.5584 33.5604 11.2501 33.3556 11.0031C33.1507 10.7561 32.7332 10.5856 32.1051 10.4976L30.7762 10.3252C29.3515 10.1452 28.3098 9.71436 27.6492 9.03457C26.9885 8.35287 26.6573 7.44904 26.6573 6.31734C26.6573 5.71415 26.7721 5.16074 27.0039 4.65904C27.2356 4.15734 27.5649 3.7284 27.9958 3.3684C28.4247 3.0084 28.9513 2.72883 29.5736 2.52968C30.196 2.33053 30.9045 2.23096 31.7011 2.23096C32.7141 2.23096 33.6064 2.39181 34.3762 2.71351C35.146 3.03521 35.8066 3.50436 36.3581 4.12096L34.4145 6.08755C34.0928 5.71989 33.706 5.41734 33.2502 5.18181C32.7945 4.94628 32.22 4.82947 31.5268 4.82947C30.8719 4.82947 30.3856 4.94436 30.0639 5.17223C29.7421 5.40011 29.5832 5.71798 29.5832 6.12394C29.5832 6.5816 29.7077 6.91096 29.9585 7.11394C30.2094 7.31692 30.6153 7.46245 31.1802 7.55245L32.5092 7.765C33.8956 7.9833 34.9219 8.41032 35.5883 9.04606C36.2547 9.68181 36.5898 10.5837 36.5898 11.7537C36.5898 12.3952 36.4749 12.9869 36.2432 13.5269C36.0115 14.0669 35.6745 14.5284 35.2321 14.9133C34.7898 15.2982 34.2402 15.5969 33.5873 15.8095C32.9324 16.022 32.1894 16.1273 31.3545 16.1273L31.3564 16.1293Z" fill="#35CED8" fill-opacity="0.4"/>
<path d="M38.882 16.269V2.46265H45.2337C45.8617 2.46265 46.4266 2.56797 46.9264 2.78052C47.4262 2.99307 47.8532 3.28414 48.2056 3.65563C48.5579 4.02711 48.8317 4.48094 49.0232 5.01328C49.2147 5.54563 49.3124 6.12584 49.3124 6.75584C49.3124 7.38584 49.2166 7.98137 49.0232 8.50797C48.8317 9.03456 48.5579 9.48265 48.2056 9.85605C47.8532 10.2275 47.4262 10.5205 46.9264 10.7312C46.4266 10.9437 45.8617 11.049 45.2337 11.049H41.8079V13.345C41.8079 14.9612 40.4981 16.2709 38.882 16.2709V16.269ZM41.8079 8.50605H44.8871C45.3237 8.50605 45.6664 8.39307 45.9173 8.16903C46.1681 7.94499 46.2926 7.61371 46.2926 7.17711V6.33073C46.2926 5.89414 46.1681 5.56477 45.9173 5.33882C45.6664 5.11477 45.3237 5.0018 44.8871 5.0018H41.8079V8.50414V8.50605Z" fill="#35CED8" fill-opacity="0.4"/>
<path d="M51.3727 16.269V2.46265H57.7436C58.3602 2.46265 58.9174 2.56605 59.4172 2.77094C59.917 2.97584 60.344 3.26882 60.6963 3.64605C61.0487 4.0252 61.3225 4.47711 61.514 5.00371C61.7055 5.53031 61.8032 6.11435 61.8032 6.75584C61.8032 7.66733 61.6002 8.46201 61.1961 9.1418C60.7921 9.82158 60.1793 10.3156 59.3578 10.6239L61.9946 15.8975H58.7412L56.3936 10.9705H54.2949V13.3431C54.2949 14.9592 52.9851 16.269 51.3689 16.269H51.3727ZM57.3778 8.50605C57.8144 8.50605 58.1572 8.39307 58.408 8.16903C58.6589 7.94499 58.7834 7.61371 58.7834 7.17711V6.33073C58.7834 5.89414 58.6589 5.56477 58.408 5.33882C58.1572 5.11477 57.8144 5.0018 57.3778 5.0018H54.2987V8.50414H57.3778V8.50605Z" fill="#35CED8" fill-opacity="0.4"/>
<path d="M63.6894 15.8973V13.5688H65.7996V4.79287H63.6894V2.46436H70.8339V4.79287H68.7237V13.5688H71.4773C71.4773 14.8556 70.2422 15.8973 68.9573 15.8973H63.6875H63.6894Z" fill="#35CED8" fill-opacity="0.4"/>
<path d="M78.6657 5.06287V13.3448C78.6657 14.961 77.3559 16.2707 75.7397 16.2707V5.06287H72.1014V2.46436H82.4936C82.4936 3.89861 81.3312 5.06287 79.8951 5.06287H78.6638H78.6657Z" fill="#35CED8" fill-opacity="0.4"/>
<path d="M14.6604 17.7606C14.061 17.7606 13.4597 17.5308 13.0021 17.0732L0.934414 5.00553C0.0190951 4.09021 0.0190951 2.60425 0.934414 1.68893C1.84973 0.773612 3.33569 0.773612 4.25101 1.68893L16.3187 13.7566C17.234 14.6719 17.234 16.1579 16.3187 17.0732C15.861 17.5308 15.2597 17.7606 14.6604 17.7606Z" fill="#35CED8" fill-opacity="0.4"/>
<path d="M15.6466 7.78026C15.0587 7.78026 14.4708 7.55622 14.0208 7.10813L10.8995 3.98686C10.0014 3.08877 10.0014 1.63537 10.8995 0.737285C11.7976 -0.160801 13.251 -0.160801 14.1491 0.737285L17.2704 3.85856C18.1685 4.75664 18.1685 6.21005 17.2704 7.10813C16.8223 7.55622 16.2344 7.78026 15.6446 7.78026H15.6466Z" fill="#35CED8" fill-opacity="0.4"/>
<path d="M2.78426 17.9157C4.2712 17.9157 5.4766 16.7103 5.4766 15.2233C5.4766 13.7364 4.2712 12.531 2.78426 12.531C1.29732 12.531 0.0919189 13.7364 0.0919189 15.2233C0.0919189 16.7103 1.29732 17.9157 2.78426 17.9157Z" fill="#35CED8" fill-opacity="0.4"/>
</g>
<defs>
<clipPath id="clip0_1494_2032">
<rect width="82.5319" height="18" fill="white"/>
</clipPath>
</defs>
</svg>
