<svg width="30" height="30" viewBox="0 0 30 30" fill="none" xmlns="http://www.w3.org/2000/svg">
<rect width="30" height="30" rx="15" fill="#D18BFF"/>
<g clip-path="url(#clip0_2304_3408)">
<path d="M10 15.5V11.5H8.5C8.10218 11.5 7.72064 11.658 7.43934 11.9393C7.15804 12.2206 7 12.6022 7 13V22C7.00074 22.0929 7.02733 22.1837 7.07679 22.2623C7.12624 22.3409 7.19661 22.4041 7.28 22.445C7.36034 22.4815 7.44892 22.4962 7.53674 22.4874C7.62456 22.4786 7.70849 22.4467 7.78 22.395L10.355 20.5H17.075C17.2645 20.5056 17.4531 20.4722 17.6292 20.402C17.8053 20.3317 17.9651 20.226 18.0987 20.0915C18.2323 19.957 18.3368 19.7965 18.4059 19.6199C18.4749 19.4433 18.5069 19.2545 18.5 19.065V18.5H13C12.2044 18.5 11.4413 18.1839 10.8787 17.6213C10.3161 17.0587 10 16.2957 10 15.5Z" fill="white"/>
<path d="M21.5 8H13C12.6022 8 12.2206 8.15804 11.9393 8.43934C11.658 8.72064 11.5 9.10218 11.5 9.5V15.5C11.5 15.8978 11.658 16.2794 11.9393 16.5607C12.2206 16.842 12.6022 17 13 17H19.775L22.165 18.855C22.2361 18.9075 22.3197 18.9403 22.4076 18.95C22.4954 18.9596 22.5842 18.9458 22.665 18.91C22.7501 18.8695 22.822 18.8057 22.8724 18.7261C22.9228 18.6465 22.9497 18.5542 22.95 18.46V9.5C22.9502 9.11069 22.7991 8.73654 22.5285 8.45663C22.2579 8.17672 21.8891 8.01298 21.5 8Z" fill="white"/>
</g>
<defs>
<clipPath id="clip0_2304_3408">
<rect width="18" height="18" fill="white" transform="translate(6 6)"/>
</clipPath>
</defs>
</svg>
