<svg width="18" height="18" viewBox="0 0 18 18" fill="none" xmlns="http://www.w3.org/2000/svg">
<g clip-path="url(#clip0_1704_3370)">
<path d="M13.0621 1.96809C13.3206 1.79576 13.3904 1.44652 13.2181 1.18804C13.0458 0.929557 12.6965 0.859709 12.4381 1.03203L10.2516 2.48966C9.86458 2.33507 9.44233 2.25004 9.00013 2.25004C8.55793 2.25004 8.13561 2.33509 7.74861 2.48971L5.56208 1.03203C5.30359 0.859709 4.95436 0.929557 4.78203 1.18804C4.60971 1.44652 4.67956 1.79576 4.93804 1.96809L6.70783 3.14795C6.18629 3.63082 5.81754 4.27636 5.68219 5.00392C6.00852 4.9198 6.35068 4.87504 6.70328 4.87504H11.297C11.6497 4.87504 11.9918 4.9198 12.3181 5.00392C12.1828 4.27632 11.814 3.63075 11.2924 3.14788L13.0621 1.96809Z" fill="#7AF45C"/>
<path d="M0.9375 10.5001C0.9375 10.1894 1.18934 9.93756 1.5 9.93756H3.75V8.95318C3.75 8.32641 3.94526 7.74523 4.27826 7.26717L2.41606 6.52216C2.12763 6.40677 1.98735 6.0794 2.10274 5.79096C2.21814 5.50253 2.54551 5.36226 2.83394 5.47765L5.18636 6.41879C5.62968 6.15289 6.14855 6.00003 6.70312 6.00003H11.2969C11.8514 6.00003 12.3703 6.15289 12.8137 6.41879L15.166 5.47765C15.4545 5.36226 15.7819 5.50253 15.8972 5.79096C16.0127 6.0794 15.8724 6.40677 15.584 6.52216L13.7218 7.26717C14.0548 7.74523 14.25 8.32641 14.25 8.95318V9.93756H16.5C16.8107 9.93756 17.0625 10.1894 17.0625 10.5001C17.0625 10.8107 16.8107 11.0626 16.5 11.0626H14.25V11.2501C14.25 12.1356 14.0308 12.9699 13.6436 13.7017L15.584 14.4779C15.8724 14.5933 16.0127 14.9207 15.8972 15.2092C15.7819 15.4975 15.4545 15.6379 15.166 15.5224L12.9966 14.6545C12.1481 15.6498 10.9342 16.3241 9.5625 16.4703V11.2501C9.5625 10.9393 9.31065 10.6876 9 10.6876C8.68935 10.6876 8.4375 10.9393 8.4375 11.2501V16.4703C7.06582 16.3241 5.85199 15.6498 5.00336 14.6545L2.83394 15.5224C2.54551 15.6379 2.21814 15.4975 2.10274 15.2092C1.98735 14.9207 2.12763 14.5933 2.41606 14.4779L4.35639 13.7017C3.96923 12.9699 3.75 12.1356 3.75 11.2501V11.0626H1.5C1.18934 11.0626 0.9375 10.8107 0.9375 10.5001Z" fill="#7AF45C"/>
</g>
<defs>
<clipPath id="clip0_1704_3370">
<rect width="18" height="18" fill="white"/>
</clipPath>
</defs>
</svg>
