<svg width="18" height="18" viewBox="0 0 18 18" fill="none" xmlns="http://www.w3.org/2000/svg">
<path d="M7.89101 1.96755C8.48606 1.3142 9.51401 1.3142 10.1091 1.96755L10.8742 2.80772C11.1749 3.13792 11.6071 3.31695 12.0533 3.2961L13.1884 3.24305C14.0711 3.20179 14.7981 3.92872 14.7568 4.81144L14.7037 5.94658C14.6829 6.3927 14.8619 6.82491 15.1921 7.12562L16.0323 7.89077C16.6857 8.48582 16.6857 9.51376 16.0323 10.1088L15.1921 10.874C14.8619 11.1746 14.6829 11.6069 14.7037 12.053L14.7568 13.1882C14.7981 14.0708 14.0711 14.7978 13.1884 14.7566L12.0533 14.7035C11.6071 14.6826 11.1749 14.8616 10.8742 15.1919L10.1091 16.032C9.51401 16.6854 8.48606 16.6854 7.89101 16.032L7.12587 15.1919C6.82515 14.8616 6.39294 14.6826 5.94682 14.7035L4.81168 14.7566C3.92896 14.7978 3.20204 14.0708 3.2433 13.1882L3.29634 12.053C3.31719 11.6069 3.13817 11.1746 2.80797 10.874L1.96779 10.1088C1.31445 9.51376 1.31445 8.48582 1.96779 7.89077L2.80797 7.12562C3.13817 6.82491 3.31719 6.3927 3.29634 5.94658L3.2433 4.81144C3.20204 3.92872 3.92896 3.20179 4.81169 3.24305L5.94682 3.2961C6.39294 3.31695 6.82515 3.13792 7.12587 2.80772L7.89101 1.96755Z" fill="#36CED8"/>
<path d="M6.75 9L8.25 10.5L11.25 7.5" stroke="white" stroke-width="1.5" stroke-linecap="round" stroke-linejoin="round"/>
</svg>
