<svg width="18" height="18" viewBox="0 0 18 18" fill="none" xmlns="http://www.w3.org/2000/svg">
<g clip-path="url(#clip0_1702_3345)">
<path d="M8.43735 1.5C5.27359 1.50308 3.63666 1.55969 2.59817 2.59817C1.55969 3.63666 1.50308 5.27359 1.5 8.43735H5.18514C4.92191 8.10855 4.72523 7.72072 4.61798 7.29171C4.21429 5.67694 5.67694 4.21429 7.29171 4.61798C7.72072 4.72523 8.10855 4.92191 8.43735 5.18514V1.5Z" fill="#FF5F5F"/>
<path d="M1.5 9.56238C1.50308 12.7261 1.55969 14.363 2.59817 15.4015C3.63666 16.44 5.27359 16.4966 8.43735 16.4997V10.5926C7.85257 11.7606 6.64485 12.5624 5.24982 12.5624C4.93916 12.5624 4.68732 12.3105 4.68732 11.9999C4.68732 11.6892 4.93916 11.4374 5.24982 11.4374C6.40241 11.4374 7.36816 10.6374 7.6221 9.56238H1.5Z" fill="#FF5F5F"/>
<path d="M9.56226 16.4997C12.726 16.4966 14.3629 16.44 15.4014 15.4015C16.4398 14.363 16.4965 12.7261 16.4995 9.56238H10.3774C10.6314 10.6374 11.5972 11.4374 12.7498 11.4374C13.0604 11.4374 13.3123 11.6892 13.3123 11.9999C13.3123 12.3105 13.0604 12.5624 12.7498 12.5624C11.3547 12.5624 10.147 11.7606 9.56226 10.5926V16.4997Z" fill="#FF5F5F"/>
<path d="M16.4995 8.43735C16.4965 5.27359 16.4398 3.63666 15.4014 2.59817C14.3629 1.55969 12.726 1.50308 9.56226 1.5V5.18514C9.89106 4.92191 10.2789 4.72523 10.7078 4.61798C12.3226 4.21429 13.7853 5.67694 13.3816 7.29171C13.2743 7.72072 13.0777 8.10855 12.8144 8.43735H16.4995Z" fill="#FF5F5F"/>
<path d="M7.01895 5.70937C7.8526 5.91778 8.43745 6.66681 8.43745 7.52608V8.43733H7.5262C6.66693 8.43733 5.9179 7.85248 5.70949 7.01883C5.51178 6.228 6.22812 5.51166 7.01895 5.70937Z" fill="#FF5F5F"/>
<path d="M9.56226 7.52608V8.43733H10.4734C11.3327 8.43733 12.0817 7.85248 12.2902 7.01883C12.4879 6.228 11.7715 5.51166 10.9807 5.70937C10.147 5.91778 9.56226 6.66681 9.56226 7.52608Z" fill="#FF5F5F"/>
</g>
<defs>
<clipPath id="clip0_1702_3345">
<rect width="18" height="18" fill="white"/>
</clipPath>
</defs>
</svg>
