<svg width="50" height="50" viewBox="0 0 50 50" fill="none" xmlns="http://www.w3.org/2000/svg">
<path opacity="0.5" d="M50 25C50 38.807 38.807 50 25 50C11.1929 50 0 38.807 0 25C0 11.1929 11.1929 0 25 0C38.807 0 50 11.1929 50 25Z" fill="#83D1D6"/>
<path d="M27.6903 16.5433C27.5 17.0027 27.5 17.5852 27.5 18.75V31.25C27.5 32.4147 27.5 32.9972 27.6903 33.4567C27.944 34.0693 28.4308 34.556 29.0433 34.8097C29.5028 35 30.0852 35 31.25 35C32.4148 35 32.9973 35 33.4567 34.8097C34.0693 34.556 34.556 34.0693 34.8097 33.4567C35 32.9972 35 32.4147 35 31.25V18.75C35 17.5852 35 17.0027 34.8097 16.5433C34.556 15.9307 34.0693 15.444 33.4567 15.1903C32.9973 15 32.4148 15 31.25 15C30.0852 15 29.5028 15 29.0433 15.1903C28.4308 15.444 27.944 15.9307 27.6903 16.5433Z" fill="#36CED8"/>
<path d="M15.1903 16.5433C15 17.0027 15 17.5852 15 18.75V31.25C15 32.4147 15 32.9972 15.1903 33.4567C15.444 34.0693 15.9307 34.556 16.5433 34.8097C17.0027 35 17.5852 35 18.75 35C19.9149 35 20.4973 35 20.9567 34.8097C21.5693 34.556 22.056 34.0693 22.3097 33.4567C22.5 32.9972 22.5 32.4147 22.5 31.25V18.75C22.5 17.5852 22.5 17.0027 22.3097 16.5433C22.056 15.9307 21.5693 15.444 20.9567 15.1903C20.4973 15 19.9149 15 18.75 15C17.5852 15 17.0027 15 16.5433 15.1903C15.9307 15.444 15.444 15.9307 15.1903 16.5433Z" fill="#36CED8"/>
</svg>
