<svg width="30" height="30" viewBox="0 0 30 30" fill="none" xmlns="http://www.w3.org/2000/svg">
<path d="M8.75 10C10.8211 10 12.5 8.32107 12.5 6.25C12.5 4.17893 10.8211 2.5 8.75 2.5C6.67893 2.5 5 4.17893 5 6.25C5 8.32107 6.67893 10 8.75 10Z" stroke="black" stroke-width="2"/>
<path d="M12.5 15H8.75H7.37294C5.48172 15 3.88646 16.4083 3.65189 18.2849L2.85126 24.6899C2.66475 26.182 3.82821 27.5 5.33195 27.5H11.25" stroke="black" stroke-width="2" stroke-linecap="round" stroke-linejoin="round"/>
<path d="M27.1487 24.6899L26.3481 18.2849C26.1135 16.4083 24.5182 15 22.6271 15H21.25H19.8729C17.9817 15 16.3865 16.4083 16.1519 18.2849L15.3512 24.6899C15.1647 26.182 16.3282 27.5 17.832 27.5H24.668C26.1717 27.5 27.3352 26.182 27.1487 24.6899Z" stroke="black" stroke-width="2" stroke-linecap="round" stroke-linejoin="round"/>
<path d="M21.25 10C23.3211 10 25 8.32107 25 6.25C25 4.17893 23.3211 2.5 21.25 2.5C19.1789 2.5 17.5 4.17893 17.5 6.25C17.5 8.32107 19.1789 10 21.25 10Z" stroke="black" stroke-width="2"/>
</svg>
