<svg width="38" height="38" viewBox="0 0 38 38" fill="none" xmlns="http://www.w3.org/2000/svg">
<path d="M34.8333 19C34.8333 10.2758 27.7242 3.16666 19 3.16666C10.2758 3.16666 3.16666 10.2758 3.16666 19C3.16666 23.5917 5.14582 27.7242 8.28082 30.6217C8.28082 30.6375 8.28082 30.6375 8.26499 30.6533C8.42332 30.8117 8.61332 30.9383 8.77166 31.0808C8.86666 31.16 8.94582 31.2392 9.04082 31.3025C9.32582 31.54 9.64249 31.7617 9.94332 31.9833C10.0542 32.0625 10.1492 32.1258 10.26 32.205C10.5608 32.4108 10.8775 32.6008 11.21 32.775C11.3208 32.8383 11.4475 32.9175 11.5583 32.9808C11.875 33.155 12.2075 33.3133 12.5558 33.4558C12.6825 33.5192 12.8092 33.5825 12.9358 33.63C13.2842 33.7725 13.6325 33.8992 13.9808 34.01C14.1075 34.0575 14.2342 34.105 14.3608 34.1367C14.7408 34.2475 15.1208 34.3425 15.5008 34.4375C15.6117 34.4692 15.7225 34.5008 15.8492 34.5167C16.2925 34.6117 16.7358 34.675 17.195 34.7225C17.2583 34.7225 17.3217 34.7383 17.385 34.7542C17.9233 34.8017 18.4617 34.8333 19 34.8333C19.5383 34.8333 20.0767 34.8017 20.5992 34.7542C20.6625 34.7542 20.7258 34.7383 20.7892 34.7225C21.2483 34.675 21.6917 34.6117 22.135 34.5167C22.2458 34.5008 22.3567 34.4533 22.4833 34.4375C22.8633 34.3425 23.2592 34.2633 23.6233 34.1367C23.75 34.0892 23.8767 34.0417 24.0033 34.01C24.3517 33.8833 24.7158 33.7725 25.0483 33.63C25.175 33.5825 25.3017 33.5192 25.4283 33.4558C25.7608 33.3133 26.0933 33.155 26.4258 32.9808C26.5525 32.9175 26.6633 32.8383 26.7742 32.775C27.0908 32.585 27.4075 32.4108 27.7242 32.205C27.835 32.1417 27.93 32.0625 28.0408 31.9833C28.3575 31.7617 28.6583 31.54 28.9433 31.3025C29.0383 31.2233 29.1175 31.1442 29.2125 31.0808C29.3867 30.9383 29.5608 30.7958 29.7192 30.6533C29.7192 30.6375 29.7192 30.6375 29.7033 30.6217C32.8542 27.7242 34.8333 23.5917 34.8333 19ZM26.8217 26.8692C22.5308 23.9875 15.5008 23.9875 11.1783 26.8692C10.4817 27.3283 9.91166 27.8667 9.43666 28.4525C7.02999 26.0142 5.54166 22.6733 5.54166 19C5.54166 11.5742 11.5742 5.54166 19 5.54166C26.4258 5.54166 32.4583 11.5742 32.4583 19C32.4583 22.6733 30.97 26.0142 28.5633 28.4525C28.1042 27.8667 27.5183 27.3283 26.8217 26.8692Z" fill="#BABABA"/>
<path d="M19 10.972C15.7225 10.972 13.0625 13.632 13.0625 16.9095C13.0625 20.1237 15.58 22.7362 18.9208 22.8312C18.9683 22.8312 19.0317 22.8312 19.0633 22.8312C19.095 22.8312 19.1425 22.8312 19.1742 22.8312C19.19 22.8312 19.2058 22.8312 19.2058 22.8312C22.4042 22.7204 24.9217 20.1237 24.9375 16.9095C24.9375 13.632 22.2775 10.972 19 10.972Z" fill="#BABABA"/>
</svg>
