<svg width="26" height="26" viewBox="0 0 26 26" fill="none" xmlns="http://www.w3.org/2000/svg">
<path d="M18.447 0H7.553C2.821 0 0 2.821 0 7.553V18.447C0 23.179 2.821 26 7.553 26H18.447C23.179 26 26 23.179 26 18.447V7.553C26 2.821 23.179 0 18.447 0ZM10.361 16.77L7.436 19.695C7.241 19.89 6.994 19.981 6.747 19.981C6.5 19.981 6.24 19.89 6.058 19.695L5.083 18.72C4.693 18.343 4.693 17.719 5.083 17.342C5.46 16.965 6.071 16.965 6.461 17.342L6.747 17.628L8.983 15.392C9.36 15.015 9.971 15.015 10.361 15.392C10.738 15.769 10.738 16.393 10.361 16.77ZM10.361 7.67L7.436 10.595C7.241 10.79 6.994 10.881 6.747 10.881C6.5 10.881 6.24 10.79 6.058 10.595L5.083 9.62C4.693 9.243 4.693 8.619 5.083 8.242C5.46 7.865 6.071 7.865 6.461 8.242L6.747 8.528L8.983 6.292C9.36 5.915 9.971 5.915 10.361 6.292C10.738 6.669 10.738 7.293 10.361 7.67ZM20.228 19.006H13.403C12.87 19.006 12.428 18.564 12.428 18.031C12.428 17.498 12.87 17.056 13.403 17.056H20.228C20.774 17.056 21.203 17.498 21.203 18.031C21.203 18.564 20.774 19.006 20.228 19.006ZM20.228 9.906H13.403C12.87 9.906 12.428 9.464 12.428 8.931C12.428 8.398 12.87 7.956 13.403 7.956H20.228C20.774 7.956 21.203 8.398 21.203 8.931C21.203 9.464 20.774 9.906 20.228 9.906Z" fill="#BABABA"/>
</svg>
