<svg width="30" height="30" viewBox="0 0 30 30" fill="none" xmlns="http://www.w3.org/2000/svg">
<path d="M25.125 11.5268C22.8625 11.5268 21.9375 9.92675 23.0625 7.96425C23.7125 6.82675 23.325 5.37675 22.1875 4.72675L20.025 3.48925C19.0375 2.90175 17.7625 3.25175 17.175 4.23925L17.0375 4.47675C15.9125 6.43925 14.0625 6.43925 12.925 4.47675L12.7875 4.23925C12.225 3.25175 10.95 2.90175 9.9625 3.48925L7.8 4.72675C6.6625 5.37675 6.275 6.83925 6.925 7.97675C8.0625 9.92675 7.1375 11.5268 4.875 11.5268C3.575 11.5268 2.5 12.5893 2.5 13.9018V16.1018C2.5 17.4017 3.5625 18.4767 4.875 18.4767C7.1375 18.4767 8.0625 20.0767 6.925 22.0392C6.275 23.1767 6.6625 24.6267 7.8 25.2767L9.9625 26.5142C10.95 27.1017 12.225 26.7518 12.8125 25.7643L12.95 25.5268C14.075 23.5643 15.925 23.5643 17.0625 25.5268L17.2 25.7643C17.7875 26.7518 19.0625 27.1017 20.05 26.5142L22.2125 25.2767C23.35 24.6267 23.7375 23.1642 23.0875 22.0392C21.95 20.0767 22.875 18.4767 25.1375 18.4767C26.4375 18.4767 27.5125 17.4142 27.5125 16.1018V13.9018C27.5 12.6018 26.4375 11.5268 25.125 11.5268ZM15 19.0642C12.7625 19.0642 10.9375 17.2392 10.9375 15.0018C10.9375 12.7643 12.7625 10.9393 15 10.9393C17.2375 10.9393 19.0625 12.7643 19.0625 15.0018C19.0625 17.2392 17.2375 19.0642 15 19.0642Z" fill="#BABABA"/>
</svg>
