<svg width="18" height="17" viewBox="0 0 18 17" fill="none" xmlns="http://www.w3.org/2000/svg">
<path d="M16.2819 5.99653C14.6537 5.99653 13.988 4.84385 14.7976 3.43002C15.2654 2.61054 14.9865 1.56593 14.1679 1.09766L12.6117 0.206132C11.901 -0.217116 10.9835 0.0350318 10.5607 0.746449L10.4618 0.91755C9.65217 2.33138 8.32084 2.33138 7.50225 0.91755L7.4033 0.746449C6.9985 0.0350318 6.08096 -0.217116 5.37031 0.206132L3.81409 1.09766C2.9955 1.56593 2.71664 2.61955 3.18441 3.43903C4.003 4.84385 3.33733 5.99653 1.70915 5.99653C0.773613 5.99653 0 6.76198 0 7.70753V9.29247C0 10.229 0.764618 11.0035 1.70915 11.0035C3.33733 11.0035 4.003 12.1561 3.18441 13.57C2.71664 14.3895 2.9955 15.4341 3.81409 15.9023L5.37031 16.7939C6.08096 17.2171 6.9985 16.965 7.42129 16.2536L7.52024 16.0825C8.32983 14.6686 9.66117 14.6686 10.4798 16.0825L10.5787 16.2536C11.0015 16.965 11.919 17.2171 12.6297 16.7939L14.1859 15.9023C15.0045 15.4341 15.2834 14.3805 14.8156 13.57C13.997 12.1561 14.6627 11.0035 16.2909 11.0035C17.2264 11.0035 18 10.238 18 9.29247V7.70753C17.991 6.77098 17.2264 5.99653 16.2819 5.99653ZM8.9955 11.4267C7.38531 11.4267 6.07196 10.1119 6.07196 8.5C6.07196 6.88805 7.38531 5.57328 8.9955 5.57328C10.6057 5.57328 11.919 6.88805 11.919 8.5C11.919 10.1119 10.6057 11.4267 8.9955 11.4267Z" fill="#969696"/>
</svg>
