<svg width="18" height="18" viewBox="0 0 18 18" fill="none" xmlns="http://www.w3.org/2000/svg">
<path d="M12.771 0H5.229C1.953 0 0 1.953 0 5.229V12.762C0 16.047 1.953 18 5.229 18H12.762C16.038 18 17.991 16.047 17.991 12.771V5.229C18 1.953 16.047 0 12.771 0ZM5.103 3.15C5.103 2.781 5.409 2.475 5.778 2.475C6.147 2.475 6.453 2.781 6.453 3.15V6.66C6.453 7.029 6.147 7.335 5.778 7.335C5.409 7.335 5.103 7.029 5.103 6.66V3.15ZM6.77054 12.9882C6.58744 13.0694 6.453 13.2419 6.453 13.4422V14.85C6.453 15.219 6.147 15.525 5.778 15.525C5.409 15.525 5.103 15.219 5.103 14.85V13.4422C5.103 13.2419 4.96854 13.0694 4.78551 12.988C3.92648 12.6058 3.33 11.7522 3.33 10.755C3.33 9.405 4.428 8.298 5.778 8.298C7.128 8.298 8.235 9.396 8.235 10.755C8.235 11.7524 7.63119 12.6059 6.77054 12.9882ZM12.897 14.85C12.897 15.219 12.591 15.525 12.222 15.525C11.853 15.525 11.547 15.219 11.547 14.85V11.34C11.547 10.971 11.853 10.665 12.222 10.665C12.591 10.665 12.897 10.971 12.897 11.34V14.85ZM12.222 9.693C10.872 9.693 9.765 8.595 9.765 7.236C9.765 6.23867 10.3688 5.38508 11.2295 5.00286C11.4125 4.92155 11.547 4.74913 11.547 4.54879V3.15C11.547 2.781 11.853 2.475 12.222 2.475C12.591 2.475 12.897 2.781 12.897 3.15V4.55779C12.897 4.75813 13.0315 4.93052 13.2145 5.01197C14.0735 5.39424 14.67 6.24776 14.67 7.245C14.67 8.595 13.572 9.693 12.222 9.693Z" fill="#969696"/>
</svg>
