<svg width="22" height="26" viewBox="0 0 22 26" fill="none" xmlns="http://www.w3.org/2000/svg">
<g clip-path="url(#clip0_2052_3574)">
<path d="M15.1491 23.413C14.5575 24.921 12.9941 26 11.1632 26C10.0505 26 8.95195 25.584 8.17731 24.843C7.72662 24.453 7.38859 23.933 7.19141 23.4C7.3745 23.426 7.5576 23.439 7.75478 23.465C8.07871 23.504 8.41676 23.543 8.75477 23.569C9.55758 23.634 10.3745 23.673 11.1913 23.673C11.9942 23.673 12.797 23.634 13.5857 23.569C13.8814 23.543 14.1772 23.53 14.4589 23.491C14.6842 23.465 14.9096 23.439 15.1491 23.413Z" fill="#BABABA"/>
<path d="M21.5013 16.237L20.0928 14.079C19.7971 13.598 19.5294 12.688 19.5294 12.155V8.866C19.5294 5.811 17.5858 3.172 14.783 1.937C14.0506 0.741 12.6986 0 11.1493 0C9.61411 0 8.23391 0.767 7.50154 1.976C4.7551 3.237 2.85372 5.85 2.85372 8.866V12.155C2.85372 12.688 2.58612 13.598 2.29036 14.066L0.867847 16.237C0.304477 17.108 0.177719 18.07 0.529825 18.954C0.867847 19.825 1.67065 20.501 2.71289 20.826C5.44523 21.684 8.31841 22.1 11.1915 22.1C14.0647 22.1 16.938 21.684 19.6703 20.839C20.6561 20.54 21.4168 19.851 21.7829 18.954C22.1491 18.057 22.0506 17.069 21.5013 16.237Z" fill="#BABABA"/>
</g>
<defs>
<clipPath id="clip0_2052_3574">
<rect width="21.6667" height="26" fill="white" transform="translate(0.333496)"/>
</clipPath>
</defs>
</svg>
