<svg width="26" height="26" viewBox="0 0 26 26" fill="none" xmlns="http://www.w3.org/2000/svg">
<path fill-rule="evenodd" clip-rule="evenodd" d="M1.90381 24.0961C3.80761 26 6.87174 26 13 26C19.1282 26 22.1924 26 24.0961 24.0961C26 22.1924 26 19.1282 26 13C26 6.87174 26 3.80761 24.0961 1.90381C22.1924 -1.23978e-07 19.1282 0 13 0C6.87174 0 3.80761 -1.23978e-07 1.90381 1.90381C-1.23978e-07 3.80761 0 6.87174 0 13C0 19.1282 -1.23978e-07 22.1924 1.90381 24.0961ZM9.75 8.775C7.41659 8.775 5.525 10.6666 5.525 13C5.525 15.3334 7.41659 17.225 9.75 17.225C12.0834 17.225 13.975 15.3334 13.975 13C13.975 12.4615 14.4115 12.025 14.95 12.025C15.4885 12.025 15.925 12.4615 15.925 13C15.925 16.4104 13.1604 19.175 9.75 19.175C6.33965 19.175 3.575 16.4104 3.575 13C3.575 9.58965 6.33965 6.825 9.75 6.825C10.2885 6.825 10.725 7.26153 10.725 7.8C10.725 8.33847 10.2885 8.775 9.75 8.775ZM20.475 13C20.475 15.3334 18.5834 17.225 16.25 17.225C15.7115 17.225 15.275 17.6615 15.275 18.2C15.275 18.7385 15.7115 19.175 16.25 19.175C19.6604 19.175 22.425 16.4104 22.425 13C22.425 9.58965 19.6604 6.825 16.25 6.825C12.8396 6.825 10.075 9.58965 10.075 13C10.075 13.5385 10.5115 13.975 11.05 13.975C11.5885 13.975 12.025 13.5385 12.025 13C12.025 10.6666 13.9166 8.775 16.25 8.775C18.5834 8.775 20.475 10.6666 20.475 13Z" fill="#83D1D6"/>
</svg>
