<svg width="88" height="23" viewBox="0 0 88 23" fill="none" xmlns="http://www.w3.org/2000/svg">
<path d="M8.1027 22.36C6.2627 22.36 4.7027 22.05 3.4227 21.43C2.1427 20.79 1.0527 19.97 0.152695 18.97L3.1527 15.94C4.5727 17.54 6.3227 18.34 8.4027 18.34C9.5227 18.34 10.3527 18.11 10.8927 17.65C11.4327 17.19 11.7027 16.58 11.7027 15.82C11.7027 15.24 11.5427 14.76 11.2227 14.38C10.9027 13.98 10.2527 13.71 9.2727 13.57L7.2027 13.3C4.9827 13.02 3.3527 12.35 2.3127 11.29C1.2927 10.23 0.782695 8.82 0.782695 7.06C0.782695 6.12 0.962695 5.26 1.3227 4.48C1.6827 3.7 2.1927 3.03 2.8527 2.47C3.5327 1.91 4.3527 1.48 5.3127 1.18C6.2927 0.859999 7.4027 0.699999 8.6427 0.699999C10.2227 0.699999 11.6127 0.949999 12.8127 1.45C14.0127 1.95 15.0427 2.68 15.9027 3.64L12.8727 6.7C12.3727 6.12 11.7627 5.65 11.0427 5.29C10.3427 4.91 9.4527 4.72 8.3727 4.72C7.3527 4.72 6.5927 4.9 6.0927 5.26C5.5927 5.62 5.3427 6.12 5.3427 6.76C5.3427 7.48 5.5327 8 5.9127 8.32C6.3127 8.64 6.9527 8.87 7.8327 9.01L9.9027 9.34C12.0627 9.68 13.6627 10.35 14.7027 11.35C15.7427 12.33 16.2627 13.73 16.2627 15.55C16.2627 16.55 16.0827 17.47 15.7227 18.31C15.3627 19.15 14.8327 19.87 14.1327 20.47C13.4527 21.07 12.6027 21.54 11.5827 21.88C10.5627 22.2 9.4027 22.36 8.1027 22.36ZM20.0434 22V1.06H29.9434C30.9234 1.06 31.8034 1.23 32.5834 1.57C33.3634 1.89 34.0234 2.34 34.5634 2.92C35.1234 3.5 35.5534 4.21 35.8534 5.05C36.1534 5.87 36.3034 6.77 36.3034 7.75C36.3034 8.75 36.1534 9.66 35.8534 10.48C35.5534 11.3 35.1234 12 34.5634 12.58C34.0234 13.16 33.3634 13.62 32.5834 13.96C31.8034 14.28 30.9234 14.44 29.9434 14.44H24.6034V22H20.0434ZM24.6034 10.48H29.4034C30.0834 10.48 30.6134 10.31 30.9934 9.97C31.3934 9.61 31.5934 9.09 31.5934 8.41V7.09C31.5934 6.41 31.3934 5.9 30.9934 5.56C30.6134 5.2 30.0834 5.02 29.4034 5.02H24.6034V10.48ZM44.2909 22H39.7309V1.06H49.6609C50.6209 1.06 51.4909 1.22 52.2709 1.54C53.0509 1.86 53.7109 2.32 54.2509 2.92C54.8109 3.5 55.2409 4.2 55.5409 5.02C55.8409 5.84 55.9909 6.75 55.9909 7.75C55.9909 9.17 55.6709 10.41 55.0309 11.47C54.4109 12.53 53.4609 13.3 52.1809 13.78L56.2909 22H51.2209L47.5609 14.32H44.2909V22ZM49.0909 10.48C49.7709 10.48 50.3009 10.31 50.6809 9.97C51.0809 9.61 51.2809 9.09 51.2809 8.41V7.09C51.2809 6.41 51.0809 5.9 50.6809 5.56C50.3009 5.2 49.7709 5.02 49.0909 5.02H44.2909V10.48H49.0909ZM59.1357 22V18.37H61.8357V4.69H59.1357V1.06H69.0957V4.69H66.3957V18.37H69.0957V22H59.1357ZM81.5078 5.11V22H76.9478V5.11H71.2778V1.06H87.1778V5.11H81.5078Z" fill="url(#paint0_linear_108_88)"/>
<defs>
<linearGradient id="paint0_linear_108_88" x1="88" y1="34" x2="-3.81137" y2="27.2523" gradientUnits="userSpaceOnUse">
<stop stop-color="#44DCE6"/>
<stop offset="1" stop-color="#4AEEF8"/>
</linearGradient>
</defs>
</svg>
