<svg width="18" height="18" viewBox="0 0 18 18" fill="none" xmlns="http://www.w3.org/2000/svg">
<g clip-path="url(#clip0_263_291)">
<path d="M9.00117 15.0407L4.5381 17.8541C4.36139 17.9635 4.15723 18.0136 3.95287 17.9975C3.77056 17.9822 3.59613 17.9125 3.44997 17.7965C3.29986 17.6759 3.18639 17.5117 3.12348 17.324C3.05141 17.1268 3.04184 16.9102 3.0962 16.7067L4.26665 11.4531L0.32248 7.92253C0.168874 7.78573 0.0634658 7.5983 0.0232798 7.39052C-0.0135316 7.1951 -0.00416069 6.99312 0.0505652 6.80242C0.101624 6.61611 0.20615 6.45106 0.349766 6.32997C0.506001 6.20057 0.696198 6.12502 0.894535 6.11359L6.06186 5.62575L8.10216 0.631198C8.18114 0.436258 8.31413 0.271054 8.48368 0.157252C8.63897 0.0551535 8.81819 0.000837238 9.00117 0.000427246C9.18414 0.000837238 9.36337 0.0551535 9.51865 0.157252C9.68821 0.271054 9.8212 0.436258 9.90018 0.631198L11.9424 5.65453L17.112 6.11359C17.3126 6.12557 17.5039 6.20644 17.6568 6.34386C17.799 6.47268 17.9029 6.64208 17.956 6.83171C18.0109 7.01821 18.0159 7.21706 17.9706 7.4064C17.9181 7.60809 17.8089 7.78823 17.6573 7.92302L13.739 11.4531L14.9061 16.7067C14.9605 16.9102 14.9509 17.1268 14.8789 17.324C14.8159 17.5117 14.7025 17.6759 14.5524 17.7965C14.4062 17.9125 14.2318 17.9822 14.0495 17.9975C13.8451 18.0136 13.641 17.9635 13.4642 17.8541L9.00117 15.0407Z" fill="#FFDC00"/>
</g>
<defs>
<clipPath id="clip0_263_291">
<rect width="18" height="18" fill="white"/>
</clipPath>
</defs>
</svg>
