<svg width="34" height="39" viewBox="0 0 34 39" fill="none" xmlns="http://www.w3.org/2000/svg">
<path d="M17.0001 12.2858V20.8573" stroke="#FCFCFC" stroke-width="3.5" stroke-linecap="round" stroke-linejoin="round"/>
<path d="M10.1597 7.93155C12.2168 6.88583 14.5312 6.28582 16.9998 6.28582C25.2799 6.28582 32 13.0059 32 21.286" stroke="#FCFCFC" stroke-width="3.5" stroke-linecap="round" stroke-linejoin="round"/>
<path d="M17.0002 36.2861C8.72008 36.2861 2 29.566 2 21.2859C2 17.8916 3.13144 14.7715 5.01718 12.2687" stroke="#FCFCFC" stroke-width="3.5" stroke-linecap="round" stroke-linejoin="round"/>
<path d="M11.8573 2H22.1431" stroke="#FCFCFC" stroke-width="3.5" stroke-miterlimit="10" stroke-linecap="round" stroke-linejoin="round"/>
<path d="M21.9724 30.2861V28.2975C21.9724 25.8461 23.721 24.8346 25.8467 26.0689L27.561 27.0632L29.2754 28.0575C31.4011 29.2918 31.4011 31.2975 29.2754 32.5318L27.561 33.5261L25.8467 34.5204C23.721 35.7547 21.9724 34.7433 21.9724 32.2918V30.2861Z" stroke="#FCFCFC" stroke-width="3.5" stroke-miterlimit="10" stroke-linecap="round" stroke-linejoin="round"/>
</svg>
