<svg width="20" height="20" viewBox="0 0 20 20" fill="none" xmlns="http://www.w3.org/2000/svg">
<path d="M17.0833 5H2.9165" stroke="black" stroke-width="1.4" stroke-linecap="round"/>
<path d="M15.6941 7.08331L15.3108 12.8326C15.1633 15.045 15.0895 16.1512 14.3687 16.8256C13.6478 17.5 12.5392 17.5 10.3218 17.5H9.67743C7.46005 17.5 6.35138 17.5 5.63054 16.8256C4.90971 16.1512 4.83596 15.045 4.68846 12.8326L4.30518 7.08331" stroke="black" stroke-width="1.4" stroke-linecap="round"/>
<path d="M7.9165 9.16669L8.33317 13.3334" stroke="black" stroke-width="1.4" stroke-linecap="round"/>
<path d="M12.0832 9.16669L11.6665 13.3334" stroke="black" stroke-width="1.4" stroke-linecap="round"/>
<path d="M5.4165 5C5.46307 5 5.48635 5 5.50746 4.99947C6.19366 4.98208 6.79902 4.54576 7.03252 3.90027C7.0397 3.88041 7.04706 3.85833 7.06179 3.81414L7.1427 3.57142C7.21176 3.36423 7.2463 3.26063 7.2921 3.17267C7.47484 2.82172 7.81295 2.57803 8.20368 2.51564C8.30161 2.5 8.41084 2.5 8.62925 2.5H11.3704C11.5888 2.5 11.6981 2.5 11.796 2.51564C12.1868 2.57803 12.5248 2.82172 12.7076 3.17267C12.7534 3.26063 12.7879 3.36423 12.857 3.57142L12.9379 3.81414C12.9526 3.85827 12.96 3.88042 12.9672 3.90027C13.2007 4.54576 13.806 4.98208 14.4923 4.99947C14.5133 5 14.5366 5 14.5832 5" stroke="black" stroke-width="1.4"/>
</svg>
