<svg width="14" height="14" viewBox="0 0 14 14" fill="none" xmlns="http://www.w3.org/2000/svg">
<g clip-path="url(#clip0_1165_3056)">
<path fill-rule="evenodd" clip-rule="evenodd" d="M1.16666 6.99984C1.16666 3.77817 3.77833 1.1665 6.99999 1.1665C10.2216 1.1665 12.8333 3.77817 12.8333 6.99984C12.8333 10.2215 10.2216 12.8332 6.99999 12.8332C3.77833 12.8332 1.16666 10.2215 1.16666 6.99984ZM6.41666 9.33317C6.41666 9.65535 6.67781 9.9165 6.99999 9.9165C7.32216 9.9165 7.58332 9.65535 7.58332 9.33317V6.07479L8.33751 6.82898C8.56531 7.05677 8.93467 7.05677 9.16246 6.82898C9.39026 6.60119 9.39026 6.23182 9.16246 6.00403L7.46321 4.3048C7.45446 4.29601 7.44548 4.28752 7.43632 4.27933C7.32946 4.15899 7.17359 4.08317 6.99999 4.08317C6.82639 4.08317 6.67052 4.15899 6.56366 4.27933C6.5545 4.28751 6.54551 4.29601 6.53676 4.3048L4.83751 6.00403C4.60971 6.23182 4.60971 6.60119 4.83751 6.82898C5.06532 7.05677 5.43466 7.05677 5.66247 6.82898L6.41666 6.07479V9.33317Z" fill="#7AF45C"/>
</g>
<defs>
<clipPath id="clip0_1165_3056">
<rect width="14" height="14" fill="white"/>
</clipPath>
</defs>
</svg>
