<svg width="22" height="20" viewBox="0 0 22 20" fill="none" xmlns="http://www.w3.org/2000/svg">
<path fill-rule="evenodd" clip-rule="evenodd" d="M16.8448 1.74167C17.3023 1.95 17.8422 2.25167 18.2716 2.65917C18.7018 3.0675 19.0196 3.57917 19.2373 4.01334C19.5121 4.55834 19.3339 5.18667 18.8853 5.61334L12.5515 11.6242C12.2794 11.8825 11.9475 12.075 11.5814 12.1867L7.87457 13.3142C7.75927 13.3493 7.63602 13.3535 7.51834 13.3265C7.40067 13.2994 7.29314 13.2421 7.20757 13.1607C7.122 13.0794 7.0617 12.9773 7.03331 12.8656C7.00492 12.7539 7.00953 12.6369 7.04663 12.5275L8.23454 9.01C8.35179 8.66274 8.55466 8.34706 8.82629 8.08917L15.16 2.0775C15.6095 1.65084 16.2715 1.4825 16.8457 1.7425L16.8448 1.74167ZM17.0301 3.83834C16.8132 3.64388 16.5685 3.47948 16.3031 3.35L10.1626 9.17834C10.1002 9.23747 10.0475 9.30517 10.0063 9.37917L8.69196 11.7517L11.1907 10.505C11.2697 10.4658 11.3408 10.4158 11.4032 10.3567L17.5437 4.52834C17.4073 4.2765 17.235 4.04421 17.0301 3.83834ZM4.389 4.58334C4.38881 4.47689 4.43155 4.37442 4.50845 4.29694C4.58535 4.21945 4.69057 4.17284 4.80253 4.16667L9.65773 4.17084C9.89059 4.17084 10.1139 4.08304 10.2786 3.92676C10.4432 3.77048 10.5357 3.55852 10.5357 3.3375C10.5357 3.11649 10.4432 2.90453 10.2786 2.74825C10.1139 2.59197 9.89059 2.50417 9.65773 2.50417L4.82887 2.5C4.24673 2.5 3.68844 2.7195 3.27681 3.1102C2.86518 3.5009 2.63393 4.0308 2.63393 4.58334V15.0642C2.63393 15.6975 2.70592 16.0517 2.914 16.42C3.11067 16.7692 3.40391 17.0483 3.77178 17.235C4.15985 17.4317 4.53211 17.5 5.20025 17.5H15.8712C16.5384 17.5 16.9116 17.4317 17.2996 17.235C17.6684 17.0483 17.9616 16.7692 18.1583 16.42C18.3655 16.0517 18.4375 15.6983 18.4375 15.0642V10.8333C18.4375 10.6123 18.345 10.4004 18.1803 10.2441C18.0157 10.0878 17.7924 10 17.5595 10C17.3267 10 17.1033 10.0878 16.9387 10.2441C16.774 10.4004 16.6815 10.6123 16.6815 10.8333V15.0642C16.6815 15.4467 16.6631 15.54 16.6095 15.6342C16.5791 15.6903 16.5309 15.7361 16.4717 15.765C16.3725 15.815 16.2742 15.8333 15.8712 15.8333H5.20025C4.79726 15.8333 4.6998 15.815 4.59971 15.765C4.5405 15.7361 4.4923 15.6904 4.46187 15.6342C4.40919 15.54 4.38988 15.4467 4.38988 15.0642L4.389 4.58334Z" fill="#36CED8"/>
</svg>
